<?xml version="1.0" encoding="utf-8"?>
<!-- Generator: Adobe Illustrator 16.0.0, SVG Export Plug-In . SVG Version: 6.00 Build 0)  -->
<!DOCTYPE svg PUBLIC "-//W3C//DTD SVG 1.1//EN" "http://www.w3.org/Graphics/SVG/1.1/DTD/svg11.dtd">
<svg version="1.1" id="Your_Icon" xmlns="http://www.w3.org/2000/svg" xmlns:xlink="http://www.w3.org/1999/xlink" x="0px" y="0px"
	 width="100px" height="100px" viewBox="0 0 100 100" enable-background="new 0 0 100 100" xml:space="preserve">
<path fill="#FFFFFF" d="M64.951,2.3C38.627-5.977,10.577,8.656,2.3,34.98c-8.277,26.328,6.354,54.376,32.678,62.653
	c26.327,8.277,54.377-6.353,62.654-32.68C105.91,38.629,91.278,10.577,64.951,2.3z M45.576,82.016
	c-0.303,0.966-1.34,1.508-2.307,1.204l-7.363-2.315c-0.966-0.304-1.506-1.342-1.203-2.307l2.086-6.635
	c0.303-0.964,1.341-1.507,2.307-1.203l7.362,2.314c0.967,0.304,1.506,1.344,1.204,2.307L45.576,82.016z M71.835,47.999
	c-0.902,1.348-1.888,2.443-2.953,3.293c-1.067,0.849-2.199,1.549-3.395,2.1c-1.197,0.551-2.389,1.088-3.575,1.608
	c-1.399,0.585-2.703,1.165-3.906,1.747c-1.208,0.58-2.33,1.299-3.365,2.155c-1.037,0.857-1.975,1.956-2.809,3.29
	c-0.539,0.86-1.021,1.886-1.505,3.053c-0.691,1.664-1.753,1.774-2.525,1.532c-0.772-0.243-5.752-1.809-5.752-1.809
	c-1.039-0.327-1.598-1.437-1.244-2.466c0,0,0.972-2.814,1.794-4.508c0.818-1.693,1.729-3.117,2.735-4.272
	c1.001-1.155,2.084-2.11,3.25-2.864c1.162-0.753,2.483-1.441,3.959-2.065c1.186-0.521,2.312-1,3.378-1.431
	c1.062-0.434,2.062-0.968,2.996-1.602c0.934-0.633,1.755-1.414,2.464-2.343c0.707-0.928,1.289-2.121,1.746-3.576
	c0.55-1.748,0.716-3.34,0.498-4.786c-0.216-1.442-0.645-2.68-1.277-3.712c-0.637-1.029-1.396-1.875-2.273-2.537
	c-0.882-0.661-1.699-1.109-2.455-1.347c-3.611-1.135-6.644-0.793-9.102,1.024c-1.928,1.425-3.37,3.558-4.663,6.247
	c-0.923,1.921-2.236,1.993-2.947,1.769s-6.008-1.889-6.008-1.889c-1.04-0.327-1.556-1.42-1.148-2.431c0,0,1.661-4.124,3.445-6.441
	c1.784-2.317,3.885-4.117,6.306-5.403c2.418-1.285,5.083-2.032,7.994-2.236c2.91-0.204,5.967,0.198,9.169,1.205
	c2.676,0.841,5.04,2.016,7.095,3.526c2.052,1.509,3.705,3.275,4.954,5.298c1.249,2.025,2.021,4.298,2.315,6.821
	c0.294,2.524,0.003,5.182-0.876,7.977C73.512,44.959,72.738,46.65,71.835,47.999z"/>
</svg>
